<svg width="22" height="23" viewBox="0 0 22 23" fill="none" xmlns="http://www.w3.org/2000/svg">
<g clip-path="url(#clip0)">
<path d="M21.9884 11.0877C21.9884 4.96343 17.0659 -0.000976562 10.9946 -0.000976562C4.92052 0.000400909 -0.00195312 4.96343 -0.00195312 11.0891C-0.00195312 16.6224 4.01902 21.2093 9.27406 22.0413V14.2931H6.48438V11.0891H9.2768V8.64404C9.2768 5.86568 10.919 4.33117 13.4297 4.33117C14.6335 4.33117 15.8909 4.54744 15.8909 4.54744V7.27483H14.5043C13.1397 7.27483 12.7137 8.13024 12.7137 9.00769V11.0877H15.7618L15.2753 14.2917H12.7124V22.04C17.9674 21.208 21.9884 16.621 21.9884 11.0877Z" fill="white"/>
</g>
<defs>
<clipPath id="clip0">
<rect width="21.9876" height="22.0396" fill="white"/>
</clipPath>
</defs>
</svg>
