<svg width="206" height="156" viewBox="0 0 206 156" fill="none" xmlns="http://www.w3.org/2000/svg">
<circle cx="102.719" cy="77.5995" r="58.376" transform="rotate(-11.0872 102.719 77.5995)" stroke="white" stroke-width="5"/>
<rect x="14.1575" y="75.4762" width="170.231" height="50.1132" transform="rotate(-14.8306 14.1575 75.4762)" fill="white" stroke="white" stroke-width="3"/>
<path d="M51.1489 101.396C51.9609 101.181 52.6617 100.921 53.2512 100.616C53.8408 100.311 54.3833 99.969 54.8786 99.5896L53.8604 95.7441L51.3548 96.4075C50.9836 96.5058 50.6674 96.484 50.4064 96.3421C50.1454 96.2002 49.975 95.9784 49.8951 95.6768L49.0381 92.4404L58.0515 90.0538L60.885 100.755C60.3614 101.403 59.7918 101.994 59.1763 102.529C58.5694 103.05 57.8949 103.527 57.1528 103.959C56.4224 104.388 55.6185 104.775 54.7414 105.119C53.8758 105.46 52.9268 105.767 51.8944 106.04C50.0383 106.532 48.2355 106.662 46.4859 106.43C44.7331 106.186 43.1247 105.644 41.6606 104.803C40.205 103.947 38.9378 102.817 37.8588 101.415C36.7884 99.9976 36.0075 98.3609 35.516 96.5049C35.0154 94.6141 34.8694 92.7969 35.0781 91.0534C35.2837 89.2983 35.8145 87.693 36.6704 86.2374C37.5379 84.7787 38.7109 83.5123 40.1892 82.4382C41.6791 81.3609 43.4448 80.552 45.4865 80.0114C46.5421 79.7319 47.557 79.5563 48.5311 79.4846C49.5051 79.4128 50.4207 79.4249 51.2778 79.5207C52.1465 79.6134 52.9609 79.7826 53.7211 80.0282C54.4813 80.2738 55.1811 80.5726 55.8205 80.9247L54.8018 83.9689C54.7039 84.2555 54.5573 84.4991 54.3622 84.6997C54.1786 84.8973 53.9535 85.0314 53.6867 85.102C53.3387 85.1942 52.9483 85.1734 52.5157 85.0397C51.978 84.8841 51.4742 84.7631 51.0044 84.6764C50.5431 84.5751 50.0809 84.5175 49.6179 84.5035C49.1549 84.4896 48.678 84.5166 48.187 84.5845C47.696 84.6524 47.1547 84.7647 46.5631 84.9214C45.4611 85.2132 44.5215 85.673 43.7443 86.3008C42.964 86.9171 42.3544 87.662 41.9153 88.5354C41.4879 89.4058 41.238 90.3844 41.1658 91.4711C41.0905 92.5462 41.2141 93.6927 41.5366 94.9108C41.8929 96.2564 42.3948 97.4021 43.0425 98.3478C43.6901 99.2935 44.434 100.04 45.274 100.587C46.1257 101.131 47.0488 101.477 48.0434 101.623C49.0465 101.755 50.0817 101.679 51.1489 101.396ZM68.5095 91.3067L70.9929 100.685L65.1115 102.243L58.3987 76.8904L66.6464 74.7065C68.4793 74.2212 70.0902 73.9995 71.4792 74.0414C72.8767 74.0686 74.0705 74.3111 75.0607 74.7689C76.0625 75.2236 76.8703 75.86 77.4841 76.6782C78.098 77.4963 78.5478 78.4448 78.8334 79.5236C79.0515 80.3472 79.1471 81.1536 79.1202 81.9428C79.0933 82.732 78.9424 83.4981 78.6674 84.2412C78.401 84.9697 78.0133 85.662 77.5043 86.3181C77.0069 86.9712 76.3878 87.5634 75.6472 88.0947C76.0938 88.1875 76.5237 88.3343 76.9369 88.5352C77.3617 88.7331 77.757 89.007 78.1227 89.3571L85.8528 96.7508L80.5283 98.1606C79.5422 98.4217 78.7363 98.2379 78.1105 97.6091L71.9508 91.3637C71.6792 91.0881 71.3973 90.9144 71.1053 90.8428C70.8248 90.7681 70.4584 90.7906 70.0059 90.9104L68.5095 91.3067ZM67.436 87.2524L69.8025 86.6258C70.6029 86.4138 71.2554 86.1355 71.76 85.7909C72.2731 85.4316 72.6619 85.0245 72.9262 84.5697C73.1906 84.1149 73.3411 83.6282 73.3775 83.1095C73.4109 82.5793 73.3539 82.0358 73.2065 81.479C72.9116 80.3654 72.3158 79.5921 71.4192 79.1592C70.5341 78.7232 69.3317 78.7064 67.8121 79.1088L65.4456 79.7354L67.436 87.2524ZM111.85 89.8671L107.291 91.0742C106.781 91.2094 106.327 91.2055 105.929 91.0625C105.54 90.9049 105.232 90.6574 105.006 90.32L102.34 86.2965L92.6997 88.849L92.3735 93.6649C92.3435 94.0204 92.1957 94.3761 91.9299 94.732C91.6611 95.0763 91.283 95.313 90.7958 95.442L86.2021 96.6583L89.3031 68.7074L95.3236 67.1133L111.85 89.8671ZM92.9973 84.4875L99.9226 82.6538L95.7526 76.3285C95.4851 75.9276 95.1686 75.459 94.8032 74.9227C94.4462 74.3717 94.077 73.7743 93.6955 73.1305C93.6973 73.8872 93.6794 74.5933 93.642 75.2488C93.6045 75.9042 93.5571 76.4753 93.4998 76.9622L92.9973 84.4875ZM122.824 59.8316L124.059 64.4949L116.925 66.3839L122.403 87.073L116.521 88.6302L111.043 67.9412L103.909 69.8302L102.674 65.1669L122.824 59.8316ZM138.398 82.8376L132.482 84.4041L125.769 59.0518L131.685 57.4853L138.398 82.8376ZM151.887 57.6478C151.787 57.9723 151.657 58.2302 151.496 58.4216C151.348 58.61 151.122 58.7441 150.821 58.824C150.554 58.8946 150.243 58.8902 149.886 58.8107C149.539 58.7166 149.14 58.6173 148.69 58.5129C148.252 58.4055 147.762 58.3366 147.22 58.3063C146.675 58.2644 146.084 58.3279 145.446 58.4968C144.344 58.7886 143.583 59.2445 143.164 59.8645C142.753 60.4698 142.654 61.1726 142.866 61.973C143.001 62.4834 143.276 62.8639 143.689 63.1143C144.103 63.3647 144.603 63.5426 145.19 63.6479C145.788 63.7503 146.451 63.8167 147.179 63.8474C147.916 63.8634 148.672 63.9053 149.447 63.9731C150.219 64.0294 150.986 64.1366 151.748 64.2949C152.522 64.4501 153.238 64.7196 153.899 65.1033C154.57 65.4841 155.169 66.0084 155.693 66.6764C156.214 67.3329 156.615 68.1889 156.894 69.2445C157.205 70.4161 157.292 71.5661 157.156 72.6944C157.02 73.8227 156.665 74.8726 156.091 75.844C155.525 76.8008 154.732 77.65 153.712 78.3919C152.7 79.119 151.475 79.673 150.037 80.0539C149.248 80.2628 148.42 80.395 147.554 80.4507C146.699 80.5033 145.85 80.486 145.007 80.3987C144.162 80.2998 143.349 80.1364 142.569 79.9086C141.788 79.6807 141.083 79.3834 140.452 79.0167L141.464 75.8067C141.536 75.5641 141.672 75.3483 141.87 75.1593C142.068 74.9702 142.301 74.8404 142.567 74.7697C142.915 74.6776 143.293 74.6956 143.699 74.8239C144.117 74.9491 144.582 75.0867 145.093 75.2368C145.616 75.3838 146.197 75.4907 146.835 75.5576C147.474 75.6244 148.187 75.5534 148.976 75.3445C150.043 75.0619 150.811 74.6103 151.28 73.9897C151.746 73.3574 151.843 72.5309 151.573 71.51C151.416 70.9184 151.127 70.48 150.703 70.1948C150.28 69.9096 149.77 69.7158 149.172 69.6135C148.585 69.5081 147.931 69.4517 147.209 69.4443C146.487 69.4368 145.743 69.4166 144.977 69.3835C144.208 69.3389 143.444 69.2432 142.685 69.0966C141.923 68.9383 141.205 68.663 140.53 68.2707C139.864 67.8637 139.262 67.303 138.725 66.5886C138.186 65.8626 137.759 64.908 137.446 63.7248C137.194 62.7735 137.139 61.7948 137.283 60.7887C137.426 59.7825 137.775 58.8273 138.33 57.9231C138.885 57.0189 139.647 56.2152 140.615 55.5119C141.58 54.797 142.759 54.2553 144.151 53.8867C144.928 53.6809 145.699 53.5451 146.464 53.4792C147.237 53.3986 147.986 53.3926 148.712 53.4611C149.435 53.518 150.125 53.6395 150.782 53.8254C151.448 53.9966 152.063 54.2311 152.626 54.5289L151.887 57.6478ZM162.286 49.3828L164.921 59.3358C165.204 60.403 165.421 61.4814 165.573 62.5708C165.722 63.6486 165.836 64.7603 165.916 65.9061L162.262 66.8736C161.765 65.8385 161.314 64.8158 160.91 63.8055C160.503 62.7837 160.158 61.7392 159.875 60.6719L157.24 50.7189L162.286 49.3828ZM162.638 73.4961C162.527 73.0785 162.5 72.6699 162.555 72.2703C162.622 71.8677 162.754 71.4977 162.95 71.1603C163.158 70.8197 163.428 70.5249 163.759 70.2758C164.087 70.0151 164.472 69.8264 164.912 69.7097C165.342 69.5961 165.763 69.5713 166.177 69.6354C166.589 69.6879 166.969 69.8107 167.318 70.0038C167.667 70.1969 167.964 70.4533 168.21 70.773C168.468 71.0896 168.652 71.4567 168.763 71.8743C168.873 72.2919 168.896 72.7078 168.832 73.122C168.777 73.5215 168.645 73.8916 168.437 74.2321C168.23 74.5726 167.96 74.8674 167.629 75.1165C167.297 75.3656 166.917 75.547 166.488 75.6606C166.047 75.7774 165.621 75.8095 165.21 75.7569C164.799 75.7044 164.419 75.5816 164.07 75.3885C163.732 75.1924 163.435 74.936 163.177 74.6194C162.928 74.2881 162.748 73.9137 162.638 73.4961Z" fill="#138175"/>
</svg>
