<svg width="22" height="23" viewBox="0 0 22 23" fill="none" xmlns="http://www.w3.org/2000/svg">
<path d="M10.9938 0C8.01035 0 7.63519 0.0137747 6.46297 0.0661187C5.29076 0.121218 4.49234 0.305799 3.79286 0.578538C3.05915 0.855161 2.39457 1.28907 1.84558 1.84994C1.28638 2.40052 0.85354 3.06658 0.577174 3.80182C0.305078 4.50158 0.119557 5.30327 0.0659627 6.47412C0.0137422 7.65186 0 8.02653 0 11.0212C0 14.013 0.0137422 14.3877 0.0659627 15.5627C0.120932 16.7363 0.305078 17.5366 0.577174 18.2377C0.85889 18.9623 1.23405 19.5766 1.84558 20.1896C2.45574 20.8026 3.06864 21.18 3.79148 21.461C4.49234 21.7338 5.28939 21.9197 6.46023 21.9734C7.63381 22.0258 8.0076 22.0396 10.9938 22.0396C13.98 22.0396 14.3524 22.0258 15.526 21.9734C16.6954 21.9183 17.4966 21.7338 18.1961 21.461C18.9293 21.1843 19.5934 20.7503 20.142 20.1896C20.7535 19.5766 21.1287 18.9623 21.4104 18.2377C21.6811 17.5366 21.8666 16.7363 21.9216 15.5627C21.9738 14.3877 21.9876 14.013 21.9876 11.0198C21.9876 8.02653 21.9738 7.65186 21.9216 6.4755C21.8666 5.30327 21.6811 4.50158 21.4104 3.80182C21.1341 3.06656 20.7012 2.40049 20.142 1.84994C19.5932 1.28887 18.9285 0.854922 18.1947 0.578538C17.4939 0.305799 16.6941 0.11984 15.5246 0.0661187C14.351 0.0137747 13.9786 0 10.991 0H10.9952H10.9938ZM10.0085 1.98631H10.9952C13.9305 1.98631 14.2782 1.99596 15.4367 2.04968C16.5085 2.09789 17.0912 2.27834 17.4788 2.42848C17.9913 2.62822 18.3583 2.8679 18.743 3.25359C19.1278 3.63928 19.3656 4.00569 19.5648 4.52086C19.716 4.90793 19.8946 5.49198 19.9427 6.56641C19.9963 7.72762 20.0073 8.07612 20.0073 11.017C20.0073 13.9579 19.9963 14.3078 19.9427 15.469C19.8946 16.5434 19.7146 17.1261 19.5648 17.5146C19.3886 17.993 19.1072 18.4257 18.7417 18.7805C18.3569 19.1661 17.9913 19.4044 17.4774 19.6042C17.0926 19.7557 16.5099 19.9348 15.4367 19.9844C14.2782 20.0367 13.9305 20.0491 10.9952 20.0491C8.05982 20.0491 7.71077 20.0367 6.5523 19.9844C5.4804 19.9348 4.89911 19.7557 4.51158 19.6042C4.03403 19.4278 3.60201 19.1463 3.24729 18.7805C2.8814 18.4251 2.59965 17.9921 2.42276 17.5132C2.27297 17.1261 2.09294 16.5421 2.04484 15.4676C1.99262 14.3064 1.98163 13.9579 1.98163 11.0143C1.98163 8.07199 1.99262 7.72486 2.04484 6.56365C2.09432 5.48923 2.27297 4.90518 2.42413 4.51673C2.62339 4.00293 2.86251 3.63515 3.24729 3.24946C3.63207 2.86376 3.99762 2.62546 4.51158 2.42573C4.89911 2.27421 5.4804 2.09513 6.5523 2.04555C7.56648 1.99871 7.9595 1.98494 10.0085 1.98356V1.98631ZM16.8631 3.8156C16.6898 3.8156 16.5183 3.8498 16.3582 3.91626C16.1982 3.98271 16.0527 4.08012 15.9302 4.20291C15.8077 4.32571 15.7106 4.47148 15.6443 4.63192C15.578 4.79236 15.5438 4.96431 15.5438 5.13797C15.5438 5.31163 15.578 5.48358 15.6443 5.64402C15.7106 5.80446 15.8077 5.95024 15.9302 6.07303C16.0527 6.19582 16.1982 6.29323 16.3582 6.35968C16.5183 6.42614 16.6898 6.46034 16.8631 6.46034C17.213 6.46034 17.5485 6.32102 17.796 6.07303C18.0434 5.82504 18.1824 5.48869 18.1824 5.13797C18.1824 4.78726 18.0434 4.4509 17.796 4.20291C17.5485 3.95492 17.213 3.8156 16.8631 3.8156ZM10.9952 5.36112C10.2463 5.34941 9.50261 5.48714 8.80737 5.76629C8.11213 6.04544 7.47923 6.46044 6.94553 6.98712C6.41183 7.5138 5.98799 8.14164 5.69869 8.83409C5.40938 9.52653 5.26039 10.2697 5.26039 11.0205C5.26039 11.7712 5.40938 12.5144 5.69869 13.2068C5.98799 13.8993 6.41183 14.5271 6.94553 15.0538C7.47923 15.5805 8.11213 15.9955 8.80737 16.2746C9.50261 16.5538 10.2463 16.6915 10.9952 16.6798C12.4773 16.6566 13.8909 16.0502 14.9309 14.9914C15.9709 13.9326 16.5538 12.5063 16.5538 11.0205C16.5538 9.53462 15.9709 8.10837 14.9309 7.04956C13.8909 5.99075 12.4773 5.3843 10.9952 5.36112ZM10.9952 7.34606C11.9672 7.34606 12.8994 7.73311 13.5867 8.42206C14.2741 9.11102 14.6602 10.0454 14.6602 11.0198C14.6602 11.9941 14.2741 12.9285 13.5867 13.6175C12.8994 14.3064 11.9672 14.6935 10.9952 14.6935C10.0231 14.6935 9.09091 14.3064 8.40358 13.6175C7.71625 12.9285 7.33011 11.9941 7.33011 11.0198C7.33011 10.0454 7.71625 9.11102 8.40358 8.42206C9.09091 7.73311 10.0231 7.34606 10.9952 7.34606Z" fill="white"/>
</svg>
