<svg width="25" height="24" viewBox="0 0 25 24" fill="none" xmlns="http://www.w3.org/2000/svg">
<path d="M15.1841 9.225V13.0339C15.1841 13.1304 15.106 13.2054 15.0056 13.2054H14.3694C14.308 13.2054 14.2522 13.1732 14.2243 13.1357L12.4051 10.7786V13.0393C12.4051 13.1357 12.327 13.2107 12.2266 13.2107H11.5904C11.49 13.2107 11.4118 13.1357 11.4118 13.0393V9.23036C11.4118 9.13393 11.49 9.05893 11.5904 9.05893H12.221C12.2768 9.05893 12.3382 9.08572 12.3661 9.13393L14.1853 11.4911V9.23036C14.1853 9.13393 14.2634 9.05893 14.3638 9.05893H15C15.1004 9.05357 15.1841 9.13393 15.1841 9.225ZM10.6083 9.05357H9.9721C9.87165 9.05357 9.79353 9.12857 9.79353 9.225V13.0339C9.79353 13.1304 9.87165 13.2054 9.9721 13.2054H10.6083C10.7087 13.2054 10.7868 13.1304 10.7868 13.0339V9.225C10.7868 9.13393 10.7087 9.05357 10.6083 9.05357ZM9.07366 12.2464H7.33817V9.225C7.33817 9.12857 7.26005 9.05357 7.1596 9.05357H6.52344C6.423 9.05357 6.34487 9.12857 6.34487 9.225V13.0339C6.34487 13.0821 6.36161 13.1196 6.39509 13.1518C6.42858 13.1786 6.46764 13.2 6.51786 13.2H9.06808C9.16853 13.2 9.24665 13.125 9.24665 13.0286V12.4179C9.24665 12.3268 9.16853 12.2464 9.07366 12.2464ZM18.5324 9.05357H15.9821C15.8873 9.05357 15.8036 9.12857 15.8036 9.225V13.0339C15.8036 13.125 15.8817 13.2054 15.9821 13.2054H18.5324C18.6328 13.2054 18.7109 13.1304 18.7109 13.0339V12.4232C18.7109 12.3268 18.6328 12.2518 18.5324 12.2518H16.7969V11.6089H18.5324C18.6328 11.6089 18.7109 11.5339 18.7109 11.4375V10.8214C18.7109 10.725 18.6328 10.65 18.5324 10.65H16.7969V10.0071H18.5324C18.6328 10.0071 18.7109 9.93215 18.7109 9.83572V9.225C18.7054 9.13393 18.6272 9.05357 18.5324 9.05357ZM25 4.37679V19.6607C24.9944 22.0607 22.9464 24.0053 20.4408 24H4.5201C2.0201 23.9946 -0.00556885 22.0232 1.1502e-05 19.6232V4.33929C0.00559185 1.93929 2.05916 -0.0053461 4.55916 1.10419e-05H20.4799C22.9799 0.00536818 25.0056 1.97144 25 4.37679ZM21.5625 10.9446C21.5625 7.03393 17.4777 3.85179 12.4609 3.85179C7.4442 3.85179 3.35938 7.03393 3.35938 10.9446C3.35938 14.4482 6.59599 17.3839 10.971 17.9411C12.0368 18.1607 11.9141 18.5357 11.6741 19.9125C11.635 20.1321 11.49 20.775 12.4609 20.3839C13.4319 19.9928 17.7009 17.4214 19.6149 15.3107C20.9319 13.9179 21.5625 12.5089 21.5625 10.9446Z" fill="white"/>
</svg>
