<svg width="23" height="23" viewBox="0 0 23 23" fill="none" xmlns="http://www.w3.org/2000/svg">
<rect width="23" height="23" fill="white"/>
<path fill-rule="evenodd" clip-rule="evenodd" d="M0.958252 2.71943C0.958252 2.25227 1.14383 1.80425 1.47416 1.47392C1.80449 1.14359 2.25251 0.95801 2.71967 0.95801H20.2782C20.5098 0.957632 20.7391 1.00292 20.9531 1.09128C21.167 1.17964 21.3615 1.30934 21.5253 1.47296C21.6891 1.63657 21.819 1.83088 21.9076 2.04477C21.9962 2.25866 22.0417 2.48792 22.0416 2.71943V20.278C22.0418 20.5096 21.9964 20.7389 21.908 20.9529C21.8195 21.1669 21.6897 21.3613 21.526 21.5251C21.3623 21.6889 21.168 21.8188 20.954 21.9074C20.7401 21.9959 20.5108 22.0415 20.2792 22.0413H2.71967C2.48828 22.0413 2.25915 21.9958 2.04538 21.9072C1.83161 21.8186 1.6374 21.6888 1.47382 21.5251C1.31025 21.3614 1.18052 21.1671 1.09206 20.9533C1.00359 20.7395 0.958126 20.5104 0.958252 20.279V2.71943ZM9.30342 8.99651H12.1583V10.4302C12.5704 9.60601 13.6245 8.86426 15.2087 8.86426C18.2456 8.86426 18.9653 10.5059 18.9653 13.5179V19.0973H15.892V14.2041C15.892 12.4887 15.4799 11.5208 14.4334 11.5208C12.9815 11.5208 12.3778 12.5644 12.3778 14.2041V19.0973H9.30342V8.99651ZM4.03259 18.9661H7.10692V8.86426H4.03259V18.9651V18.9661ZM7.54679 5.56951C7.55259 5.83274 7.50575 6.09447 7.40902 6.33935C7.3123 6.58423 7.16763 6.80733 6.98352 6.99554C6.7994 7.18375 6.57955 7.3333 6.33685 7.43539C6.09416 7.53749 5.83352 7.59008 5.57023 7.59008C5.30694 7.59008 5.0463 7.53749 4.80361 7.43539C4.56092 7.3333 4.34106 7.18375 4.15695 6.99554C3.97283 6.80733 3.82817 6.58423 3.73144 6.33935C3.63471 6.09447 3.58787 5.83274 3.59367 5.56951C3.60505 5.05283 3.81829 4.56114 4.18773 4.19975C4.55716 3.83836 5.05342 3.63599 5.57023 3.63599C6.08704 3.63599 6.5833 3.83836 6.95274 4.19975C7.32217 4.56114 7.53542 5.05283 7.54679 5.56951Z" fill="black"/>
</svg>
