<svg width="24" height="24" viewBox="0 0 24 24" fill="none" xmlns="http://www.w3.org/2000/svg">
<g clip-path="url(#clip0)">
<path d="M7.25219 21.6952C15.9646 21.6952 20.7306 14.4591 20.7306 8.19492C20.7306 7.99243 20.7306 7.78705 20.722 7.58456C21.6499 6.91127 22.4507 6.07769 23.087 5.12288C22.2202 5.50594 21.3017 5.75841 20.3613 5.87209C21.3519 5.27856 22.0938 4.34469 22.4492 3.24407C21.5185 3.79675 20.4998 4.18474 19.4378 4.39102C18.7238 3.62883 17.779 3.1239 16.7497 2.95445C15.7204 2.78499 14.6641 2.96047 13.7444 3.4537C12.8247 3.94693 12.093 4.73038 11.6624 5.6827C11.2319 6.63502 11.1267 7.70307 11.3631 8.7214C9.47971 8.62673 7.63719 8.1363 5.95505 7.28191C4.27292 6.42751 2.78874 5.22823 1.59877 3.76186C0.994673 4.80769 0.810314 6.04478 1.08313 7.22192C1.35595 8.39905 2.0655 9.42798 3.06768 10.0998C2.31669 10.0742 1.58221 9.87205 0.923478 9.50966V9.57474C0.924773 10.6703 1.30341 11.7319 1.9954 12.5799C2.68738 13.428 3.65026 14.0105 4.72128 14.2291C4.31475 14.3414 3.89481 14.3973 3.47314 14.3954C3.17588 14.3963 2.8792 14.3687 2.58718 14.313C2.88989 15.2561 3.47931 16.0807 4.27289 16.6712C5.06646 17.2618 6.02445 17.5888 7.01266 17.6063C5.33389 18.928 3.26017 19.6448 1.12549 19.6413C0.749346 19.6429 0.373465 19.6212 0 19.5763C2.16659 20.9608 4.68275 21.696 7.25219 21.6952Z" fill="white"/>
</g>
<defs>
<clipPath id="clip0">
<rect width="23.087" height="23.1416" fill="white"/>
</clipPath>
</defs>
</svg>
