<svg width="28" height="28" viewBox="0 0 28 28" fill="none" xmlns="http://www.w3.org/2000/svg">
<g clip-path="url(#clip0)">
<path d="M13.8298 3.44238H13.9827C15.3947 3.44755 22.5493 3.4992 24.4784 4.0192C25.0615 4.1779 25.5929 4.48723 26.0195 4.91629C26.446 5.34534 26.7527 5.87909 26.909 6.4642C27.0825 7.11849 27.2045 7.98458 27.2869 8.87821L27.3041 9.05728L27.3419 9.50495L27.3556 9.68403C27.4673 11.2578 27.481 12.7317 27.4828 13.0537V13.1828C27.481 13.5168 27.4656 15.0906 27.3419 16.7298L27.3282 16.9106L27.3127 17.0896C27.2268 18.0745 27.0997 19.0525 26.909 19.7722C26.7532 20.3576 26.4467 20.8916 26.02 21.3207C25.5934 21.7498 25.0618 22.059 24.4784 22.2172C22.4857 22.7545 14.912 22.7923 13.8625 22.7941H13.6186C13.0878 22.7941 10.8924 22.7837 8.59061 22.7045L8.29859 22.6942L8.14915 22.6873L7.85541 22.6753L7.56167 22.6632C5.65493 22.5788 3.83924 22.4428 3.00268 22.2155C2.41947 22.0574 1.88795 21.7485 1.46136 21.3197C1.03476 20.8909 0.728075 20.3573 0.572021 19.7722C0.381347 19.0542 0.254231 18.0745 0.168342 17.0896L0.1546 16.9088L0.140858 16.7298C0.0560814 15.563 0.009104 14.3939 0 13.2241L0 13.0123C0.00343556 12.6421 0.0171778 11.3628 0.109938 9.95091L0.121962 9.77356L0.127116 9.68403L0.140858 9.50495L0.178649 9.05728L0.195827 8.87821C0.27828 7.98458 0.400243 7.11677 0.573738 6.4642C0.72953 5.87886 1.0361 5.34485 1.46271 4.91572C1.88932 4.48659 2.42099 4.17742 3.0044 4.0192C3.84095 3.79536 5.65665 3.65761 7.56338 3.57152L7.85541 3.55947L8.15086 3.54914L8.29859 3.54397L8.59233 3.53192C10.2272 3.47919 11.8626 3.44991 13.4983 3.4441H13.8298V3.44238ZM10.9938 8.96946V17.2653L18.1346 13.1191L10.9938 8.96946Z" fill="white"/>
</g>
<defs>
<clipPath id="clip0">
<rect width="27.4845" height="27.5493" fill="white"/>
</clipPath>
</defs>
</svg>
